<svg xmlns="http://www.w3.org/2000/svg" xmlns:xlink="http://www.w3.org/1999/xlink" width="891" height="80" viewBox="0 0 891 80">
  <defs>
    <polygon id="编组2-a" points="0 80 890.455 80 890.455 0 0 0"/>
  </defs>
  <g fill="none" fill-rule="evenodd">
    <path fill="#000" d="M443.4891 30.7896C439.7161 30.8796 437.8751 29.0606 437.9661 25.3336L437.9661.6486 442.1941.6486 442.1941 10.6386C444.7841 9.1606 447.0471 7.6156 448.9781 6.0016L451.8431 8.5586C448.7281 10.9686 445.5121 13.0026 442.1941 14.6616L442.1941 24.6856C442.1711 26.0726 442.8421 26.7546 444.2051 26.7316L445.8081 26.7316C446.9891 26.8006 447.7391 26.1976 448.0581 24.9246 448.3761 23.7436 448.6261 22.6526 448.8081 21.6506 449.8311 22.6976 450.9231 23.4246 452.0821 23.8336 451.9451 24.6296 451.6941 25.6746 451.3321 26.9706 450.5821 29.4936 448.9321 30.7666 446.3871 30.7896L443.4891 30.7896zM422.4181 28.2666L420.2021 24.7536 429.4761 20.9696 429.4761 12.7176 421.4971 12.7176 421.4971 8.9346 429.4761 8.9346 429.4761.6486 433.7381.6486 433.7381 31.5396 429.4761 31.5396 429.4761 24.9586 422.4181 28.2666zM484.9842 30.6533C482.0742 27.9713 479.2112 25.6973 476.3922 23.8333L479.3592 21.2083C481.9262 22.8443 484.4952 24.8113 487.0642 27.1073L484.9842 30.6533zM465.2762 17.3203L478.3702 17.3203 478.3702 13.6733 465.2762 13.6733 465.2762 17.3203zM461.0832 20.7643L461.0832 10.2293 482.5972 10.2293 482.5972 20.7643 474.6192 20.7643 474.6192 26.9363C474.5742 29.8913 473.0392 31.3913 470.0152 31.4373 468.7652 31.4373 467.5842 31.3693 466.4692 31.2323 466.4472 29.8003 466.1862 28.4923 465.6852 27.3113 467.0952 27.5393 468.1742 27.6523 468.9242 27.6523 469.9482 27.6753 470.4482 27.1303 470.4242 26.0163L470.4242 20.7643 461.0832 20.7643zM456.8882 8.1493L456.8882 4.5003 469.8452 4.5003C469.5272 4.0013 469.0152 3.2393 468.3112 2.2163 468.0152 1.7853 467.7882 1.4553 467.6302 1.2283L472.3352.3413C473.3352 1.6833 474.2102 3.0693 474.9602 4.5003L486.7232 4.5003 486.7232 8.1493 456.8882 8.1493zM459.4802 30.7893C458.4582 29.5843 457.3662 28.6753 456.2072 28.0613 459.4342 26.1743 462.1732 23.9023 464.4242 21.2413L467.5952 23.5613C465.2762 26.4253 462.5722 28.8333 459.4802 30.7893L459.4802 30.7893zM506.7039 28.0957L491.9749 28.0957 491.9749 25.4017C494.3829 22.1977 496.8499 19.1397 499.3729 16.2297 501.3499 13.9797 502.3059 11.9907 502.2369 10.2627 502.2369 8.3997 501.2599 7.4677 499.3049 7.4677 497.6899 7.4907 495.8149 8.1037 493.6789 9.3087L492.7249 5.4907C495.0429 4.0807 497.3389 3.3757 499.6109 3.3757 504.1119 3.5347 506.4419 5.8307 506.6009 10.2627 506.6699 13.0367 505.3509 15.8887 502.6459 18.8217 500.9869 20.6397 499.5429 22.3677 498.3159 24.0037L506.7039 24.0037 506.7039 28.0957zM519.7274 7.46717272C517.1824 7.46717272 515.9034 10.2973 515.8924 15.9573 515.8804 21.6163 517.1594 24.4133 519.7274 24.3443 522.2964 24.3673 523.5694 21.5713 523.5464 15.9573 523.5464 10.2753 522.2734 7.4453 519.7274 7.46717272M519.7274 3.3753C525.0474 3.6033 527.7744 7.7973 527.9114 15.9573 527.7744 24.0273 525.0474 28.1863 519.7274 28.4363 514.4314 28.2093 511.7044 24.0503 511.5444 15.9573 511.7044 7.7973 514.4314 3.6033 519.7274 3.3753M546.7313 28.0957L532.0023 28.0957 532.0023 25.4017C534.4113 22.1977 536.8773 19.1397 539.4003 16.2297 541.3783 13.9797 542.3333 11.9907 542.2653 10.2627 542.2653 8.3997 541.2883 7.4677 539.3333 7.4677 537.7183 7.4907 535.8433 8.1037 533.7073 9.3087L532.7523 5.4907C535.0703 4.0807 537.3663 3.3757 539.6393 3.3757 544.1393 3.5347 546.4693 5.8307 546.6293 10.2627 546.6973 13.0367 545.3783 15.8887 542.6733 18.8217 541.0143 20.6397 539.5713 22.3677 538.3433 24.0037L546.7313 24.0037 546.7313 28.0957zM566.7459 28.0957L552.0169 28.0957 552.0169 25.4017C554.4249 22.1977 556.8919 19.1397 559.4149 16.2297 561.3919 13.9797 562.3479 11.9907 562.2789 10.2627 562.2789 8.3997 561.3019 7.4677 559.3469 7.4677 557.7319 7.4907 555.8569 8.1037 553.7209 9.3087L552.7669 5.4907C555.0849 4.0807 557.3809 3.3757 559.6529 3.3757 564.1539 3.5347 566.4839 5.8307 566.6429 10.2627 566.7119 13.0367 565.3929 15.8887 562.6879 18.8217 561.0289 20.6397 559.5849 22.3677 558.3579 24.0037L566.7459 24.0037 566.7459 28.0957z"/>
    <mask id="编组2-b" fill="#fff">
      <use xlink:href="#编组2-a"/>
    </mask>
    <path fill="#000" d="M582.224 20.969L587.646 20.969 587.646 15.65 582.224 15.65 582.224 20.969zM581.236 7.501C580.327 9.002 579.315 10.457 578.202 11.866L587.646 11.866 587.646 7.501 581.236 7.501zM572.167 24.822L572.167 20.969 577.997 20.969 577.997 12.138C577.383 12.888 576.723 13.639 576.019 14.389 574.951 13.366 573.598 12.639 571.962 12.207 575.485 8.797 578.236 4.728 580.214 0L584.169 1.569C583.895 2.274 583.6 2.967 583.282 3.648L601.182 3.648 601.182 7.501 591.942 7.501 591.942 11.866 600.194 11.866 600.194 15.65 591.942 15.65 591.942 20.969 603.194 20.969 603.194 24.822 591.942 24.822 591.942 31.676 587.646 31.676 587.646 24.822 572.167 24.822zM628.6981 7.2627L618.6391 7.2627C618.5711 7.3767 618.4911 7.4677 618.4011 7.5357 619.9471 9.2177 621.6851 10.6277 623.6181 11.7627 625.6401 10.4907 627.3341 8.9907 628.6981 7.2627L628.6981 7.2627zM630.7781 32.4937C625.2551 30.3117 619.3671 28.5497 613.1161 27.2097L615.3661 23.6977C621.4361 25.0157 626.9261 26.6637 631.8351 28.6407L630.7781 32.4937zM609.7071 20.8327C609.2291 19.4917 608.4231 18.2647 607.2851 17.1507 612.2641 16.3787 616.4581 15.2417 619.8671 13.7417 618.4801 12.6957 617.1961 11.4797 616.0141 10.0927 614.8551 11.2517 613.6041 12.3207 612.2641 13.2987 611.1731 12.0247 610.0821 11.1277 608.9911 10.6047 613.3771 7.5587 616.6631 4.0467 618.8441.0687L622.5601 1.6027C622.0841 2.4677 621.6511 3.1827 621.2651 3.7507L633.5401 3.7507 633.5401 6.8877C632.0401 9.5027 630.0161 11.7627 627.4701 13.6737 630.9021 15.0597 634.9041 15.9347 639.4721 16.2987 638.4951 17.4347 637.7791 18.7997 637.3241 20.3897 631.7551 19.4807 627.1861 18.0717 623.6181 16.1617 622.3221 16.8437 620.9931 17.4577 619.6291 18.0037 623.3101 18.7767 627.0271 20.0607 630.7781 21.8567L629.6871 25.6397C625.9811 23.8907 621.7881 22.4467 617.1051 21.3097L619.4581 18.0717C616.7081 19.1397 613.4571 20.0607 609.7071 20.8327L609.7071 20.8327zM647.2801 19.9126L647.2801 3.1376 654.9181 3.1376C655.5761 2.0926 656.0891 1.1256 656.4531.2386L661.0211 1.0916C660.6801 1.7736 660.2941 2.4546 659.8611 3.1376L671.2501 3.1376 671.2501 19.9126 667.2601 19.9126 667.2601 6.4786 651.2691 6.4786 651.2691 17.6286C653.1791 16.6276 654.7591 15.4796 656.0091 14.1846L652.1901 14.1846 652.1901 11.4566 654.7811 11.4566C654.1441 10.5246 653.3031 9.4906 652.2591 8.3536L654.7131 7.2626C655.5311 8.1266 656.3161 9.0706 657.0661 10.0926L655.1221 11.4566 657.5091 11.4566 657.5091 7.2286 660.9871 7.2286 660.9871 11.4566 663.4411 11.4566C662.7821 11.0256 662.0781 10.6386 661.3281 10.2976 662.2831 9.3196 663.1001 8.2856 663.7831 7.1946L666.1351 8.3876C665.3401 9.5926 664.5551 10.6166 663.7831 11.4566L666.3401 11.4566 666.3401 14.1846 660.9871 14.1846 660.9871 16.1956 662.7591 14.6616C664.3511 15.5026 665.7041 16.4126 666.8171 17.3896L665.3511 19.7756C664.1461 18.7536 662.6921 17.6966 660.9871 16.6046L660.9871 18.9926 657.5091 18.9926 657.5091 16.2646C656.3951 17.6286 655.0651 18.8106 653.5201 19.8096 652.9061 19.0826 652.1561 18.4586 651.2691 17.9346L651.2691 19.9126 647.2801 19.9126zM644.0081 24.3106L644.0081 20.8676 657.0661 20.8676C657.1341 20.3896 657.1901 19.8676 657.2361 19.2986L661.2941 19.7756C661.2251 20.1626 661.1791 20.5256 661.1581 20.8676L674.4551 20.8676 674.4551 24.3106 662.7591 24.3106C665.2161 26.1066 669.1921 27.2216 674.6941 27.6526 673.6931 28.9476 673.0221 30.2666 672.6811 31.6076 666.5211 31.0166 662.0441 29.0836 659.2481 25.8106 657.2241 29.0166 652.8841 31.0286 646.2231 31.8466 645.6321 30.4826 644.7921 29.2546 643.7001 28.1636 649.7461 27.6416 653.6681 26.3566 655.4631 24.3106L644.0081 24.3106zM695.0154 5.8652C693.2864 7.9332 691.2864 9.7752 689.0134 11.3882L701.3904 11.3882C698.9364 9.8202 696.8104 7.9782 695.0154 5.8652L695.0154 5.8652zM681.4454 21.2762L681.4454 17.6622 708.6534 17.6622 708.6534 21.2762 694.8784 21.2762C693.6054 23.3002 692.3094 25.0942 690.9924 26.6632L699.6864 26.1522C699.2084 25.5612 698.5154 24.7422 697.6064 23.6972 697.4014 23.4242 697.2424 23.2322 697.1284 23.1172L700.6404 21.3442C702.9824 23.7992 705.2094 26.4932 707.3244 29.4252L704.0504 31.9142C703.5274 31.1642 702.9704 30.3912 702.3794 29.5952L688.6724 30.4832C687.2414 30.5962 685.9224 30.8452 684.7174 31.2322L683.1834 27.5842C684.5474 27.2892 685.6614 26.6982 686.5254 25.8102 687.4794 24.8342 688.6384 23.3222 690.0024 21.2762L681.4454 21.2762zM687.2064 14.9342L687.2064 12.5812C685.5714 13.5822 683.7854 14.4912 681.8544 15.3092 681.1494 14.1282 680.1154 13.0712 678.7504 12.1382 685.8884 9.4562 691.0144 5.4102 694.1284.0002L698.0494 1.5342C697.9364 1.7392 697.7534 2.0352 697.5034 2.4212 697.4124 2.5572 697.3444 2.6592 697.2994 2.7282 700.9354 6.9102 705.6534 9.7412 711.4504 11.2182 710.2444 12.1952 709.3234 13.4342 708.6874 14.9342 706.6194 14.1842 704.6984 13.3092 702.9254 12.3082L702.9254 14.9342 687.2064 14.9342zM736.032 23.766L741.147 23.766 741.147 7.366 736.032 7.366 736.032 23.766zM732.078 30.653L732.078 3.75 745.102 3.75 745.102 30.653 741.147 30.653 741.147 27.414 736.032 27.414 736.032 30.653 732.078 30.653zM715.95 13.435L715.95 9.922 722.223 9.922 722.223 5.933C720.883 6.138 719.576 6.286 718.303 6.376 717.847 5.149 717.234 4.125 716.462 3.308 721.78 2.853 725.94 2.092 728.941 1.023L731.259 4.023C729.645 4.5 727.93 4.921 726.111 5.286L726.111 9.922 731.055 9.922 731.055 13.435 726.111 13.435 726.111 15.616 727.031 15.105C728.782 17.128 730.282 19.151 731.532 21.174L728.77 23.731C727.952 22.322 727.065 20.935 726.111 19.572L726.111 31.676 722.223 31.676 722.223 19.64C720.814 22.345 719.417 24.345 718.03 25.64 716.893 24.89 715.688 24.368 714.416 24.072 717.507 20.981 719.893 17.435 721.576 13.435L715.95 13.435zM771.9022 7.2627L761.8432 7.2627C761.7762 7.3767 761.6962 7.4677 761.6052 7.5357 763.1502 9.2177 764.8892 10.6277 766.8222 11.7627 768.8442 10.4907 770.5392 8.9907 771.9022 7.2627L771.9022 7.2627zM773.9812 32.4937C768.4582 30.3117 762.5712 28.5497 756.3202 27.2097L758.5702 23.6977C764.6392 25.0157 770.1302 26.6637 775.0392 28.6407L773.9812 32.4937zM752.9112 20.8327C752.4322 19.4917 751.6262 18.2647 750.4902 17.1507 755.4672 16.3787 759.6622 15.2417 763.0712 13.7417 761.6842 12.6957 760.3992 11.4797 759.2182 10.0927 758.0592 11.2517 756.8092 12.3207 755.4672 13.2987 754.3772 12.0247 753.2862 11.1277 752.1942 10.6047 756.5822 7.5587 759.8662 4.0467 762.0482.0687L765.7652 1.6027C765.2872 2.4677 764.8552 3.1827 764.4682 3.7507L776.7442 3.7507 776.7442 6.8877C775.2442 9.5027 773.2202 11.7627 770.6742 13.6737 774.1072 15.0597 778.1072 15.9347 782.6762 16.2987 781.6992 17.4347 780.9822 18.7997 780.5282 20.3897 774.9592 19.4807 770.3902 18.0717 766.8222 16.1617 765.5262 16.8437 764.1962 17.4577 762.8332 18.0037 766.5152 18.7767 770.2312 20.0607 773.9812 21.8567L772.8902 25.6397C769.1852 23.8907 764.9912 22.4467 760.3092 21.3097L762.6622 18.0717C759.9112 19.1397 756.6612 20.0607 752.9112 20.8327L752.9112 20.8327zM800.6111 12.1382L799.9291 8.6602 804.5661 7.9442C804.4751 5.7632 804.4301 3.3982 804.4301.8532L808.2151.6142C808.2151 3.0002 808.2711 5.2512 808.3851 7.3652L812.0331 6.7852C810.8741 5.1492 809.8281 3.8992 808.8961 3.0342L812.0331 1.4672C813.1471 2.5572 814.1471 3.7402 815.0341 5.0132L813.1251 6.6152 815.9881 6.1722 816.7051 9.6502 808.5901 10.9112C808.6351 11.3432 808.7031 11.9572 808.7951 12.7522 808.8631 13.3202 808.9081 13.7412 808.9301 14.0142L817.1481 12.3772 817.8301 15.8552 809.4421 17.5602C809.6921 18.7652 809.9301 19.8782 810.1581 20.9012 811.9301 19.8332 813.5221 18.6292 814.9311 17.2862L817.1481 20.1512C815.5341 21.7652 813.6131 23.2202 811.3851 24.5152 811.5901 24.9702 811.7951 25.3672 811.9991 25.7082 812.5901 26.6872 813.1591 27.1532 813.7041 27.1072 814.1351 27.1982 814.5221 26.6182 814.8631 25.3672 815.0681 24.5722 815.2381 23.7652 815.3751 22.9472 816.2391 23.9922 817.2841 24.7882 818.5111 25.3332 818.2611 26.3792 818.0561 27.1412 817.8981 27.6182 817.0801 30.0732 815.7501 31.3052 813.9091 31.3172935 812.0671 31.3282 810.5091 30.3682 809.2381 28.4362 808.8051 27.8012 808.3961 27.0732 808.0101 26.2552 805.7371 27.2552 803.2701 28.0502 800.6111 28.6412 800.1331 27.3912 799.3611 26.2652 798.2931 25.2652 801.2701 24.7662 804.0661 23.9132 806.6801 22.7082 806.2711 21.4122 805.9301 19.9582 805.6571 18.3442L800.9861 19.2642 800.0661 15.7862 805.1121 14.7982C805.0891 14.5032 805.0441 14.0482 804.9751 13.4342 804.8841 12.5932 804.8161 11.9462 804.7711 11.4912L800.6111 12.1382zM793.4511 14.0482C792.8381 15.7762 792.0881 17.3892 791.2011 18.8892L792.6671 17.5942C793.2801 18.0032 794.0871 18.5832 795.0881 19.3332 795.7021 17.6052 796.0981 15.8442 796.2811 14.0482L793.4511 14.0482zM791.3031 31.5742C790.1881 30.6872 788.8821 30.0282 787.3821 29.5962 790.1091 27.4372 792.1771 25.0732 793.5881 22.5042 792.3821 21.4802 791.3381 20.6742 790.4501 20.0832 790.4051 20.1292 790.3471 20.2082 790.2801 20.3212 790.0981 20.5722 789.8591 20.8792 789.5641 21.2422 788.6541 20.4472 787.5071 19.9122 786.1201 19.6392 789.1661 15.8672 791.0301 11.2642 791.7131 5.8312L787.6211 5.8312 787.6211 2.4552 800.4751 2.4552 800.4751 5.8312 795.2581 5.8312C795.0991 7.4902 794.8141 9.1382 794.4051 10.7752L799.8611 10.7752 799.8611 13.7752C799.2701 20.8672 796.4181 26.8002 791.3031 31.5742L791.3031 31.5742zM826.285 19.9126L826.285 3.1376 833.923 3.1376C834.582 2.0926 835.094 1.1256 835.458.2386L840.026 1.0916C839.685 1.7736 839.299 2.4546 838.866 3.1376L850.255 3.1376 850.255 19.9126 846.265 19.9126 846.265 6.4786 830.274 6.4786 830.274 17.6286C832.184 16.6276 833.764 15.4796 835.014 14.1846L831.195 14.1846 831.195 11.4566 833.786 11.4566C833.149 10.5246 832.308 9.4906 831.264 8.3536L833.719 7.2626C834.536 8.1266 835.321 9.0706 836.071 10.0926L834.127 11.4566 836.514 11.4566 836.514 7.2286 839.992 7.2286 839.992 11.4566 842.447 11.4566C841.787 11.0256 841.083 10.6386 840.333 10.2976 841.288 9.3196 842.106 8.2856 842.788 7.1946L845.14 8.3876C844.345 9.5926 843.56 10.6166 842.788 11.4566L845.346 11.4566 845.346 14.1846 839.992 14.1846 839.992 16.1956 841.764 14.6616C843.356 15.5026 844.709 16.4126 845.822 17.3896L844.356 19.7756C843.151 18.7536 841.697 17.6966 839.992 16.6046L839.992 18.9926 836.514 18.9926 836.514 16.2646C835.4 17.6286 834.07 18.8106 832.525 19.8096 831.911 19.0826 831.161 18.4586 830.274 17.9346L830.274 19.9126 826.285 19.9126zM823.013 24.3106L823.013 20.8676 836.071 20.8676C836.139 20.3896 836.195 19.8676 836.242 19.2986L840.299 19.7756C840.231 20.1626 840.184 20.5256 840.163 20.8676L853.46 20.8676 853.46 24.3106 841.764 24.3106C844.221 26.1066 848.198 27.2216 853.699 27.6526 852.698 28.9476 852.027 30.2666 851.686 31.6076 845.527 31.0166 841.049 29.0836 838.253 25.8106 836.229 29.0166 831.889 31.0286 825.228 31.8466 824.637 30.4826 823.797 29.2546 822.706 28.1636 828.752 27.6416 832.673 26.3566 834.469 24.3106L823.013 24.3106zM874.0203 5.8652C872.2913 7.9332 870.2913 9.7752 868.0183 11.3882L880.3963 11.3882C877.9413 9.8202 875.8153 7.9782 874.0203 5.8652L874.0203 5.8652zM860.4503 21.2762L860.4503 17.6622 887.6593 17.6622 887.6593 21.2762 873.8833 21.2762C872.6113 23.3002 871.3143 25.0942 869.9973 26.6632L878.6913 26.1522C878.2133 25.5612 877.5203 24.7422 876.6113 23.6972 876.4063 23.4242 876.2473 23.2322 876.1333 23.1172L879.6463 21.3442C881.9873 23.7992 884.2143 26.4932 886.3293 29.4252L883.0553 31.9142C882.5323 31.1642 881.9753 30.3912 881.3843 29.5952L867.6773 30.4832C866.2463 30.5962 864.9273 30.8452 863.7223 31.2322L862.1883 27.5842C863.5523 27.2892 864.6663 26.6982 865.5303 25.8102 866.4853 24.8342 867.6433 23.3222 869.0083 21.2762L860.4503 21.2762zM866.2113 14.9342L866.2113 12.5812C864.5763 13.5822 862.7913 14.4912 860.8593 15.3092 860.1543 14.1282 859.1203 13.0712 857.7563 12.1382 864.8933 9.4562 870.0193 5.4102 873.1333.0002L877.0543 1.5342C876.9413 1.7392 876.7583 2.0352 876.5083 2.4212 876.4173 2.5572 876.3493 2.6592 876.3043 2.7282 879.9413 6.9102 884.6583 9.7412 890.4553 11.2182 889.2493 12.1952 888.3293 13.4342 887.6923 14.9342 885.6243 14.1842 883.7033 13.3092 881.9303 12.3082L881.9303 14.9342 866.2113 14.9342zM430.226 70.536L443.592 70.536 443.592 67.876 430.226 67.876 430.226 70.536zM430.226 59.011L441.887 59.011 441.887 56.556 430.226 56.556 430.226 59.011zM443.592 75.479L443.592 73.877 430.226 73.877 430.226 75.479 426.066 75.479 426.066 53.249 445.945 53.249 445.945 62.318 430.226 62.318 430.226 64.568 447.649 64.568 447.649 75.479 443.592 75.479zM421.599 55.396L421.599 47.452 433.806 47.452C433.261 46.407 432.761 45.589 432.305 44.998L437.045 44.145C437.886 45.555 438.488 46.657 438.852 47.452L450.411 47.452 450.411 55.158 446.353 55.158 446.353 50.862 425.657 50.862 425.657 55.396 421.599 55.396zM457.2977 53.1807L457.2977 49.3277 470.4587 49.3277C469.6177 47.9177 468.6867 46.6127 467.6637 45.4077L472.3007 43.9747C473.3917 45.3167 474.3797 46.7707 475.2677 48.3387L473.0167 49.3277 486.6897 49.3277 486.6897 53.1807 469.6077 53.1807C469.5837 54.0227 469.5267 55.3407 469.4367 57.1357 469.5047 55.8397 469.5047 55.9087 469.4367 57.3407L483.2787 57.3407 482.6657 68.8307C482.4387 72.8537 480.5287 74.8767 476.9377 74.9007 475.6187 74.9007 474.3227 74.8207 473.0507 74.6607 472.9827 73.2287 472.6867 71.8657 472.1637 70.5707 473.6417 70.7977 474.9257 70.9107 476.0177 70.9107 477.5177 70.8657 478.3357 69.9557 478.4717 68.1827L478.8467 61.1247 469.0267 61.1247C468.1867 67.3987 465.5157 72.2407 461.0147 75.6507 459.8097 74.5807 458.4577 73.7517 456.9567 73.1607 462.0947 69.5697 464.8107 64.2957 465.1067 57.3407 465.1067 57.2037 465.1167 56.9887 465.1407 56.6927 465.2307 55.2387 465.2877 54.0677 465.3107 53.1807L457.2977 53.1807zM513.7615 74.6953C512.9435 74.6953 512.0105 74.6273 510.9655 74.4913L510.9655 74.3203C510.8285 72.8203 510.4655 71.5583 509.8745 70.5363 511.0105 70.7633 512.0225 70.8773 512.9085 70.8773 514.2735 70.8993 514.9665 70.0243 514.9895 68.2513L515.2955 54.5103 511.9885 54.5103C511.9885 54.5793 511.9835 54.6923 511.9715 54.8513 511.9595 55.0103 511.9535 55.1353 511.9535 55.2263 511.7725 64.5003 509.3295 71.2983 504.6235 75.6163 503.4185 74.7983 502.0775 74.2183 500.6005 73.8773 505.4645 69.9903 507.9535 63.6943 508.0675 54.9873L508.0675 54.5103 503.8055 54.5103 503.8055 50.8623 508.1695 50.8623C508.1925 50.0663 508.2035 49.1693 508.2035 48.1683L508.2035 46.5993 508.2035 44.4523 512.0565 44.6913 512.0565 48.3733C512.0565 49.3043 512.0455 50.1343 512.0225 50.8623L519.2165 50.8623 519.0465 57.4773 520.8535 56.9653C522.0585 59.3513 523.1265 61.8643 524.0585 64.5003L521.2625 66.5473C520.5805 64.6143 519.8195 62.6933 518.9785 60.7843L518.7745 69.1723C518.6375 72.8313 516.9665 74.6733 513.7615 74.6953L513.7615 74.6953zM503.0555 66.7513L500.1575 64.6363C501.7255 62.3643 502.8965 59.8293 503.6685 57.0343L506.4985 58.6703C505.7025 61.5343 504.5565 64.2273 503.0555 66.7513L503.0555 66.7513zM491.9405 56.2153L491.9405 52.6003 495.6565 52.6003 495.6565 44.4863 499.5095 44.4863 499.5095 52.6003 502.7825 52.6003 502.7825 56.2153 499.5095 56.2153 499.5095 75.4793 495.6565 75.4793 495.6565 56.2153 491.9405 56.2153zM540.8 65.797L546.154 65.797 546.154 61.5 540.8 61.5 540.8 65.797zM536.913 69.205L550.006 69.205 550.006 58.091 536.913 58.091 536.913 69.205zM535.617 55.737L551.335 55.737 551.335 52.294 535.617 52.294 535.617 55.737zM529.991 75.514L529.991 46.191 556.961 46.191 556.961 69.751C556.938 73.434 555.325 75.286 552.119 75.31 551.074 75.31 549.836 75.229 548.403 75.07 548.312 73.752 547.96 72.411 547.346 71.047 548.687 71.252 549.823 71.354 550.756 71.354 552.142 71.377 552.824 70.615 552.802 69.069L552.802 49.907 534.151 49.907 534.151 75.514 529.991 75.514zM581.6463 74.7979C580.3513 74.7979 579.1353 74.7299 577.9983 74.5939 577.9303 72.9559 577.5213 71.4899 576.7713 70.1949 578.4993 70.4439 579.9303 70.5809 581.0673 70.6049 583.0443 70.6049 584.0683 69.5349 584.1353 67.3989L584.5443 54.5109 579.3963 54.5109C578.7143 64.1039 574.8163 71.1049 567.7023 75.5139 566.6783 74.4009 565.3943 73.5469 563.8483 72.9559 570.8493 68.9109 574.6113 62.7619 575.1343 54.5109L566.7813 54.5109 566.7813 50.5889 575.3733 50.5889C575.4183 48.5889 575.4413 46.5439 575.4413 44.4519L579.6693 44.6919C579.6693 47.0089 579.6463 48.9759 579.6013 50.5889L588.9093 50.5889 588.6703 57.5449 590.9203 56.7269C592.6253 58.9769 594.1703 61.4539 595.5583 64.1589L592.5233 67.1259C591.2503 64.6939 589.9323 62.4329 588.5683 60.3409L588.3303 68.1489C588.1703 72.5589 585.9433 74.7749 581.6463 74.7979M566.2363 67.2289L563.1323 64.3299C565.0643 62.0119 566.6323 59.3859 567.8373 56.4529L571.1113 58.4999C569.8613 61.7049 568.2353 64.6139 566.2363 67.2289M627.2674 62.4209C622.1984 58.3979 618.4244 52.9529 615.9474 46.0889L619.7324 44.5209C621.9374 51.1119 625.8134 56.0569 631.3594 59.3519 629.7454 60.1019 628.3814 61.1249 627.2674 62.4209L627.2674 62.4209zM623.5174 75.5819C623.4034 75.3999 623.2444 75.1159 623.0394 74.7299 622.8804 74.4799 622.5164 73.8649 621.9494 72.8879L608.8904 74.0129C607.3444 74.1499 605.9574 74.4449 604.7304 74.8999L602.8204 71.2179C604.2984 70.7179 605.4914 69.8079 606.4004 68.4889 608.8324 64.8749 611.0384 60.8179 613.0154 56.3169L616.9364 57.8859C614.6864 62.8639 612.4924 66.8759 610.3564 69.9219L619.7324 69.2739C618.4364 67.2289 617.2784 65.5009 616.2544 64.0909L619.9024 62.5919C622.2664 65.5919 624.5854 69.0249 626.8584 72.8879L623.5174 75.5819zM602.5474 62.6249C601.4114 61.6929 600.1154 60.9539 598.6614 60.4089 603.5714 56.6359 606.9124 51.6239 608.6854 45.3729L612.6404 47.0089C610.3434 53.7829 606.9804 58.9889 602.5474 62.6249L602.5474 62.6249zM651.5106 58.5C650.5096 57.795 649.2596 57.341 647.7596 57.136 650.3516 53.545 652.1126 49.283 653.0446 44.351L656.7266 45.339C656.4536 46.634 656.1236 47.918 655.7386 49.191L665.5576 49.191 665.5576 52.26 663.5126 57.988C662.3756 57.603 661.1136 57.431 659.7276 57.478L661.4656 52.635 654.5786 52.635C653.7386 54.749 652.7146 56.704 651.5106 58.5L651.5106 58.5zM663.4786 75.104C660.5456 72.944 658.4326 70.149 657.1356 66.717 655.8636 70.263 653.4076 73.206 649.7716 75.548 648.8616 74.457 647.6796 73.616 646.2256 73.024 651.2486 70.615 654.0336 66.569 654.5786 60.886 654.7386 59.296 654.7836 57.409 654.7156 55.227L658.6706 55.465C658.6706 55.716 658.6586 56.091 658.6366 56.59 658.6146 57.613 658.5906 58.375 658.5686 58.875 659.0456 64.83 661.9086 69.297 667.1606 72.274 665.7736 72.842 664.5456 73.786 663.4786 75.104L663.4786 75.104zM635.3826 51.441L635.3826 48.065 639.9506 48.065C640.2006 47.315 640.5196 46.214 640.9066 44.759 640.9746 44.555 641.0206 44.406 641.0416 44.316L644.7926 45.271C644.5206 46.203 644.2246 47.135 643.9066 48.065L649.7026 48.065 649.7026 51.441 642.7476 51.441C641.8386 54.033 640.9406 56.317 640.0536 58.295L642.4416 58.295 642.4416 53.658 645.6466 53.658 645.6466 58.295 648.8166 58.295 648.8166 61.637 645.6466 61.637 645.6466 64.808 648.8846 64.228 649.7376 67.535 645.6466 68.354 645.6466 75.514 641.8266 75.514 641.8266 69.104 636.3026 70.195 635.0756 66.581 641.8266 65.455 641.8266 61.637 635.9276 61.637 635.9276 58.125C636.9056 56.192 637.8606 53.965 638.7926 51.441L635.3826 51.441zM680.9354 65.0459L680.9354 61.3639 690.5504 61.3639 690.5504 54.9539 686.1864 54.9539C685.5724 56.5899 684.8684 58.1029 684.0724 59.4879 682.8214 58.8529 681.4924 58.4999 680.0824 58.4319 682.2184 55.0449 683.7314 50.9769 684.6184 46.2249L688.3344 47.4179C688.0614 48.7599 687.7434 50.0779 687.3784 51.3729L690.5504 51.3729 690.5504 44.4859 694.6414 44.4859 694.6414 51.3729 701.0864 51.3729 701.0864 54.9539 694.6414 54.9539 694.6414 61.3639 702.3134 61.3639 702.3134 65.0459 694.6414 65.0459 694.6414 75.5139 690.5504 75.5139 690.5504 65.0459 680.9354 65.0459zM675.1734 75.4799L675.1734 59.0449C674.5594 59.8629 673.9334 60.6709 673.2974 61.4669 672.4114 60.3529 671.3204 59.4779 670.0244 58.8409 673.7514 54.2269 676.3094 49.3969 677.6964 44.3509L681.5824 45.8839C680.7424 48.7709 679.5594 51.6239 678.0374 54.4419L679.1274 54.4419 679.1274 75.4799 675.1734 75.4799zM734.4315 75.6504C732.4545 72.6264 730.3625 69.8994 728.1585 67.4664L731.7035 65.5914C733.8185 67.9104 735.7165 70.3314 737.3985 72.8534L734.4315 75.6504zM724.9185 61.3644L729.4535 61.3644 729.4535 54.8514 724.9185 54.8514 724.9185 61.3644zM717.3835 54.8514L717.3835 51.2374 720.9975 51.2374 720.9975 44.7584 724.9185 44.7584 724.9185 51.2374 729.4535 51.2374 729.4535 44.7584 733.3745 44.7584 733.3745 51.2374 737.2625 51.2374 737.2625 54.8514 733.3745 54.8514 733.3745 61.3644 737.9445 61.3644 737.9445 64.9774 716.4975 64.9774 716.4975 61.3644 720.9975 61.3644 720.9975 54.8514 717.3835 54.8514zM719.8385 75.5824C718.8155 74.5814 717.6105 73.8204 716.2245 73.2964 718.9295 71.0464 721.0665 68.4894 722.6345 65.6264L726.1465 67.5694C724.2835 70.6834 722.1795 73.3544 719.8385 75.5824L719.8385 75.5824zM710.9745 75.5134L710.9745 58.4654C710.3595 59.2614 709.7235 60.0224 709.0645 60.7504 708.3145 59.7504 707.2575 58.8864 705.8935 58.1594 709.5295 54.3394 712.1785 49.7494 713.8375 44.3834L717.5205 45.7824C716.5425 48.8284 715.2815 51.6804 713.7355 54.3394L714.9285 54.3394 714.9285 75.5134 710.9745 75.5134zM760.7537 66.1035C759.4127 61.6705 758.0717 57.9885 756.7307 55.0555L760.8567 54.3055C762.0617 56.9885 763.2767 60.3525 764.5047 64.3985L760.7537 66.1035zM749.3317 74.3545L749.3317 70.6375 761.9827 70.6375C764.5497 65.5695 766.6077 60.3065 768.1527 54.8515L772.2107 56.4875C770.6647 61.3525 768.7887 66.0695 766.5847 70.6375L773.5397 70.6375 773.5397 74.3545 749.3317 74.3545zM745.8547 75.3765C744.6047 74.5365 743.1937 73.9225 741.6267 73.5365 744.4907 69.4445 745.8767 64.4205 745.7857 58.4655L745.7857 48.6465 757.9247 48.6465C757.3327 47.4415 756.6737 46.2715 755.9457 45.1335L760.9247 44.3165C761.5617 45.3165 762.3227 46.7595 763.2087 48.6465L773.0967 48.6465 773.0967 52.3625 749.9457 52.3625 749.9457 57.7845 754.0707 56.9995C755.6167 60.1595 757.0157 63.5575 758.2657 67.1945L754.4807 69.0695C753.1397 65.1365 751.6277 61.4195 749.9457 57.9195L749.9457 58.3635C750.0357 65.2735 748.6727 70.9455 745.8547 75.3765L745.8547 75.3765zM791.544 67.706L796.351 67.706 796.351 64.808 791.544 64.808 791.544 67.706zM789.702 50.521C790.566 51.727 791.361 52.942 792.089 54.17L795.874 54.17C796.941 52.691 797.737 51.476 798.26 50.521L789.702 50.521zM785.406 57.375L785.406 62.421C787.474 60.784 789.122 59.147 790.349 57.511L792.975 59.147C792.27 60.057 791.43 61.012 790.452 62.012L798.158 62.012C797.18 61.034 796.112 60.068 794.952 59.113L797.646 57.511C799.42 58.966 801.044 60.466 802.522 62.012L802.522 57.375 785.406 57.375zM787.214 64.943C786.713 64.398 786.11 63.887 785.406 63.409L785.406 75.514 781.383 75.514 781.383 54.17 787.656 54.17C787.088 53.283 786.44 52.362 785.713 51.407L789.361 50.521 778.689 50.521 778.689 47.214 791.816 47.214C791.43 46.555 790.964 45.782 790.418 44.896L795.124 44.179C795.76 45.134 796.339 46.146 796.862 47.214L809.273 47.214 809.273 50.521 798.941 50.521 802.181 51.681C801.567 52.635 801.011 53.465 800.511 54.17L806.58 54.17 806.58 70.161C806.601 73.593 804.886 75.297 801.431 75.275 800.294 75.275 799.305 75.229 798.465 75.139 798.35 73.934 798.078 72.718 797.646 71.49 798.761 71.649 799.715 71.729 800.511 71.729 801.92 71.797 802.59 71.036 802.522 69.444L802.522 62.762 800.681 64.671C800.341 64.308 799.987 63.921 799.624 63.512L799.624 70.57 788.305 70.57 788.305 64.058C787.917 64.398 787.555 64.693 787.214 64.943L787.214 64.943zM359.9979 79.4492L359.9979.5512C359.9979.2462 360.2449.0002 360.5489.0002 360.8529.0002 361.1009.2462 361.1009.5512L361.1009 79.4492C361.1009 79.7532 360.8529 80.0002 360.5489 80.0002 360.2449 80.0002 359.9979 79.7532 359.9979 79.4492M278.9485 25.4604C278.9485 25.5494 278.9335 25.6394 278.9225 25.7334 278.9115 25.8044 278.9035 25.8754 278.8845 25.9464 278.8655 26.0284 278.8405 26.1104 278.8095 26.1894 278.7835 26.2644 278.7615 26.3424 278.7235 26.4134 278.7165 26.4434 278.7055 26.4654 278.6945 26.4954L263.2375 57.2754C263.0245 57.8174 262.6235 58.2854 262.0635 58.5654 261.9695 58.6134 261.8685 58.6434 261.7715 58.6804 261.7415 58.6924 261.7115 58.7034 261.6895 58.7104 261.5805 58.7444 261.4765 58.7634 261.3685 58.7864 261.3075 58.7964 261.2525 58.8074 261.1925 58.8114 261.1135 58.8194 261.0395 58.8194 260.9605 58.8194 260.8665 58.8234 260.7735 58.8194 260.6805 58.8114 260.6355 58.8074 260.5945 58.8004 260.5535 58.7894 260.4295 58.7744 260.3065 58.7444 260.1835 58.7074 260.1755 58.7034 260.1725 58.6994 260.1605 58.6964 260.0445 58.6624 259.9325 58.6254 259.8245 58.5684 259.2605 58.2854 258.8565 57.8094 258.6435 57.2604L253.7235 47.4624 256.4785 41.9414 260.4895 49.9264C260.4895 49.9264 260.9455 50.8354 261.3975 49.9264 261.8535 49.0174 272.0295 28.7614 272.0295 28.7614 272.0295 28.7614 272.4775 27.8524 271.4685 27.8524L263.1775 27.8524C262.1905 27.8524 261.7085 28.7614 261.7085 28.7614L257.6305 36.8844 257.6185 36.8724 253.0285 46.0844 253.0175 46.0614 247.3875 57.2754C247.1745 57.8174 246.7745 58.2854 246.2135 58.5654 246.1205 58.6134 246.0235 58.6434 245.9265 58.6764 245.8965 58.6884 245.8655 58.7034 245.8365 58.7104 245.7315 58.7444 245.6275 58.7634 245.5265 58.7824 245.4625 58.7934 245.4025 58.8074 245.3425 58.8114 245.2645 58.8194 245.1895 58.8194 245.1115 58.8194 245.0175 58.8234 244.9275 58.8194 244.8345 58.8114 244.7895 58.8074 244.7445 58.8004 244.7035 58.7894 244.5805 58.7704 244.4605 58.7444 244.3375 58.7074 244.3255 58.7034 244.3145 58.6994 244.3035 58.6964 244.1955 58.6584 244.0835 58.6254 243.9745 58.5684 243.4135 58.2854 243.0135 57.8134 242.8015 57.2754L227.3405 26.4924 227.3435 26.4924C227.3325 26.4654 227.3245 26.4434 227.3175 26.4204 227.2805 26.3424 227.2505 26.2604 227.2235 26.1784 227.1985 26.1034 227.1685 26.0284 227.1535 25.9504 227.1345 25.8754 227.1265 25.8044 227.1155 25.7294 227.1045 25.6394 227.0895 25.5464 227.0895 25.4564 227.0895 25.4304 227.0825 25.4114 227.0825 25.3814 227.0825 25.3334 227.0935 25.2884 227.0965 25.2394 227.1005 25.1534 227.1085 25.0644 227.1195 24.9784 227.1345 24.8994 227.1535 24.8214 227.1715 24.7464 227.1945 24.6684 227.2205 24.5964 227.2425 24.5224 227.2725 24.4434 227.3065 24.3684 227.3435 24.2934 227.3775 24.2264 227.4105 24.1594 227.4525 24.0954 227.4965 24.0244 227.5415 23.9614 227.5905 23.8944 227.6385 23.8344 227.6875 23.7744 227.7405 23.7144 227.7965 23.6584 227.8555 23.5954 227.9235 23.5394 227.9755 23.4944 228.0315 23.4454 228.0875 23.4004 228.1665 23.3444 228.2525 23.2924 228.3345 23.2474 228.3715 23.2254 228.4015 23.1944 228.4425 23.1804 228.4615 23.1684 228.4845 23.1654 228.5025 23.1534 228.5925 23.1124 228.6895 23.0794 228.7825 23.0494 228.8425 23.0264 228.9095 23.0044 228.9735 22.9934 229.0555 22.9664 229.1455 22.9594 229.2275 22.9484 229.3095 22.9374 229.3845 22.9224 229.4675 22.9224 229.4965 22.9224 229.5195 22.9144 229.5495 22.9144L245.3955 22.9144C245.4475 22.9144 245.4955 22.9294 245.5485 22.9334 245.6345 22.9374 245.7205 22.9404 245.8065 22.9554 245.8775 22.9664 245.9485 22.9854 246.0195 23.0044 246.1055 23.0264 246.1955 23.0564 246.2815 23.0864 246.3375 23.1084 246.3935 23.1354 246.4495 23.1654 246.5425 23.2064 246.6325 23.2514 246.7185 23.3034 246.7595 23.3334 246.7975 23.3594 246.8385 23.3894 246.9315 23.4564 247.0175 23.5274 247.1035 23.6094 247.1295 23.6364 247.1565 23.6664 247.1855 23.6954 247.2675 23.7784 247.3425 23.8714 247.4135 23.9684 247.4395 24.0024 247.4585 24.0404 247.4815 24.0774 247.5265 24.1444 247.5705 24.2044 247.6085 24.2754L247.6085 24.2794 252.3225 33.6654 249.5555 39.1714 244.3295 28.7614C244.3295 28.7614 243.8695 27.8524 242.8605 27.8524L234.5695 27.8524C233.5755 27.8524 234.0095 28.7614 234.0095 28.7614L244.6365 49.9294C244.6365 49.9294 245.0925 50.8384 245.5485 49.9294 246.0045 49.0214 249.8435 41.3804 249.8435 41.3804L254.3705 32.3604 258.4295 24.2794C258.4635 24.2114 258.5115 24.1514 258.5495 24.0924 258.5795 24.0474 258.6015 23.9984 258.6315 23.9614 258.6955 23.8714 258.7625 23.7894 258.8415 23.7104 258.8745 23.6734 258.9085 23.6364 258.9495 23.5984 259.0245 23.5274 259.0985 23.4644 259.1815 23.4044 259.2295 23.3674 259.2815 23.3334 259.3345 23.2994 259.4095 23.2514 259.4875 23.2104 259.5705 23.1684 259.6335 23.1394 259.7005 23.1084 259.7725 23.0794 259.8465 23.0564 259.9215 23.0304 260.0035 23.0084 260.0825 22.9854 260.1565 22.9664 260.2395 22.9554 260.3175 22.9404 260.3965 22.9374 260.4785 22.9334 260.5345 22.9294 260.5835 22.9144 260.6425 22.9144L276.4885 22.9144C276.5185 22.9144 276.5445 22.9224 276.5745 22.9224 276.6495 22.9254 276.7235 22.9374 276.7955 22.9444 276.8925 22.9594 276.9825 22.9664 277.0725 22.9934 277.1275 23.0044 277.1835 23.0264 277.2435 23.0454 277.3445 23.0754 277.4455 23.1124 277.5385 23.1614 277.5575 23.1684 277.5765 23.1684 277.5915 23.1804 277.6255 23.1944 277.6515 23.2214 277.6855 23.2394 277.7785 23.2884 277.8715 23.3444 277.9575 23.4084 278.0065 23.4454 278.0545 23.4864 278.0995 23.5274 278.1715 23.5914 278.2455 23.6584 278.3055 23.7264 278.3505 23.7744 278.3955 23.8304 278.4325 23.8784 278.4885 23.9534 278.5415 24.0244 278.5895 24.1064 278.6265 24.1634 278.6565 24.2234 278.6825 24.2824 278.7275 24.3614 278.7655 24.4474 278.7995 24.5334 278.8215 24.6004 278.8405 24.6684 278.8625 24.7314 278.8815 24.8134 278.9035 24.8994 278.9185 24.9814 278.9335 25.0674 278.9335 25.1534 278.9405 25.2354 278.9445 25.2844 278.9555 25.3334 278.9555 25.3814 278.9555 25.4114 278.9485 25.4344 278.9485 25.4604M253.0205.0004C232.2375.0004 215.3895 16.8474 215.3895 37.6314 215.3895 58.4124 232.2375 75.2594 253.0205 75.2594 273.8015 75.2594 290.6485 58.4124 290.6485 37.6314 290.6485 16.8474 273.8015.0004 253.0205.0004M300.8963 70.7236C300.8963 73.4446 298.6903 75.6506 295.9693 75.6506 293.2483 75.6506 291.0393 73.4446 291.0393 70.7236 291.0393 68.0016 293.2483 65.7966 295.9693 65.7966 298.6903 65.7966 300.8963 68.0016 300.8963 70.7236M204.5023 50.5479C204.5023 41.7559 197.3803 34.6229 188.5883 34.6229L188.5883 34.6379 159.4833 34.6379 159.4833 34.6229C154.4333 34.6229 150.3443 30.5379 150.3443 25.4869 150.3443 20.4479 154.4333 16.3399 159.4833 16.3399L199.1003 16.3399C200.9653 16.3399 202.4833 14.8299 202.4833 12.9569 202.4833 11.0849 200.9653 9.5739 199.1003 9.5739L159.4833 9.5739C150.7033 9.5739 143.5743 16.6989 143.5743 25.4869 143.5743 34.2679 150.7033 41.3969 159.4833 41.3969L188.5883 41.3969 188.5883 41.4079C193.6393 41.4079 197.7283 45.4969 197.7283 50.5479 197.7283 55.6019 193.6393 59.6939 188.5883 59.6939L148.9833 59.6939C147.1103 59.6939 145.5933 61.2049 145.5933 63.0779 145.5933 64.9499 147.1103 66.4609 148.9833 66.4609L188.5883 66.4609 188.6073 66.4609C197.3843 66.4489 204.5023 59.3239 204.5023 50.5479M138.8152 25.4878C138.8152 16.6988 131.6932 9.5738 122.9012 9.5738L122.9012 9.5858 82.6162 9.5858C80.7512 9.5858 79.2362 11.0958 79.2362 12.9718 79.2362 14.8298 80.7512 16.3588 82.6162 16.3588L122.9012 16.3588C122.9052 16.3588 122.9052 16.3408 122.9052 16.3408 127.9562 16.3588 132.0412 20.4488 132.0412 25.4878 132.0412 30.5378 127.9442 34.6238 122.9012 34.6238L122.9012 34.6388 89.1312 34.6388C89.1052 34.6388 89.0832 34.6238 89.0572 34.6238 83.6322 34.6238 79.2442 39.0308 79.2442 44.4468L79.2362 44.4468 79.2362 63.0778C79.2362 64.9508 80.7512 66.4608 82.6162 66.4608 84.4892 66.4608 86.0062 64.9508 86.0062 63.0778L86.0062 53.7328 86.0182 53.7368 86.0182 44.4468C86.0182 42.7688 87.3752 41.4078 89.0572 41.4078L98.3502 41.4078 122.9012 41.4078C122.9132 41.4078 122.9172 41.3978 122.9172 41.3978 131.6972 41.3898 138.8152 34.2688 138.8152 25.4878M68.3626 12.9941C68.3666 12.2091 68.1456 11.4431 67.6116 10.7921 66.4186 9.3531 64.2846 9.1621 62.8486 10.3631L38.3046 30.3171 43.6726 34.6791 61.6266 20.0851 61.6266 55.9571 53.8516 49.6321C53.7276 49.5681 53.5896 49.5341 53.4736 49.4261L34.1406 33.6851 28.8176 38.0211 28.8286 38.0211 23.0006 42.7611 15.0306 49.2501C15.0116 49.2721 14.9936 49.2721 14.9786 49.2921L6.7736 55.9571 6.7736 20.0931 24.6676 34.6491 29.9946 30.2941 5.8766 10.6541C5.8646 10.6431 5.8536 10.6201 5.8466 10.6091L5.5286 10.3631C4.0966 9.1621 1.9666 9.3531.7666 10.7921.2356 11.4241.0186 12.1981.0186 12.9721L-.0004 12.9721-.0004 13.1961-.0004 13.2931-.0004 63.0931.0446 63.0661C.0406 63.8371.2576 64.6101.7846 65.2501 1.9856 66.6881 4.1306 66.8831 5.5696 65.6721L34.1956 42.3901 62.8266 65.6721C64.2736 66.8721 66.4116 66.6781 67.6116 65.2501 68.1426 64.6101 68.3516 63.8371 68.3516 63.0661L68.3966 63.0781 68.3966 12.9721 68.3626 12.9941z" mask="url(#编组2-b)"/>
  </g>
</svg>
