<?xml version="1.0" encoding="UTF-8"?> <svg width="120px" height="36px" viewBox="0 0 120 36" version="1.1" xmlns="http://www.w3.org/2000/svg" xmlns:xlink="http://www.w3.org/1999/xlink"> <title>rating_mark_90</title> <defs> <linearGradient x1="-1.11022302e-14%" y1="50%" x2="100%" y2="50%" id="linearGradient-1"> <stop stop-color="#FC2F58" offset="0%"></stop> <stop stop-color="#F86F4B" offset="100%"></stop> </linearGradient> <path d="M20.079,27.995 C21.675,27.05 22.998,25.853 24.069,24.362 C24.804,25.139 25.455,25.895 25.896,26.546 L27.891,23.921 C27.345,23.207 26.547,22.388 25.623,21.548 C26.673,19.133 27.303,16.151 27.597,12.476 L25.728,12.056 L25.224,12.14 L23.313,12.14 C23.544,10.838 23.754,9.557 23.901,8.318 L20.856,8.108 C20.751,9.389 20.583,10.775 20.352,12.14 L18.609,12.14 L18.609,14.933 L19.827,14.933 C19.47,16.634 19.071,18.209 18.672,19.49 C19.68,20.309 20.814,21.275 21.885,22.262 C20.919,23.711 19.701,24.845 18.231,25.58 C18.861,26.126 19.659,27.26 20.079,27.995 Z M29.298,28.016 C30.957,28.016 32.238,27.953 33.225,27.512 C34.212,27.05 34.506,26.294 34.506,24.803 L34.506,19.448 L38.475,19.448 L38.475,16.55 L34.506,16.55 L34.506,15.248 C35.997,13.82 37.32,12.035 38.328,10.502 L36.291,9.032 L35.577,9.179 L27.891,9.179 L27.891,11.93 L33.624,11.93 C32.973,12.98 32.154,14.051 31.335,14.807 L31.335,16.55 L27.114,16.55 L27.114,19.448 L31.335,19.448 L31.335,24.74 C31.335,25.055 31.209,25.139 30.852,25.139 L30.4058916,25.1382036 C29.8566933,25.1360133 28.983,25.1278 28.29,25.097 C28.71,25.895 29.151,27.155 29.298,28.016 Z M23.271,19.511 C22.83,19.154 22.389,18.797 21.948,18.461 C22.242,17.348 22.515,16.151 22.767,14.933 L24.447,14.933 C24.195,16.613 23.817,18.146 23.271,19.511 Z M43.641,13.589 L45.678,11.489 C44.943,10.565 43.368,9.2 42.276,8.255 L40.365,10.103 C41.478,11.153 42.969,12.623 43.641,13.589 Z M54.414,27.974 L54.414,21.443 L59.496,21.443 L59.496,18.545 L54.414,18.545 L54.414,11.867 L58.782,11.867 L58.782,8.969 L46.56,8.969 L46.56,11.867 L51.327,11.867 L51.327,18.545 L46.14,18.545 L46.14,21.443 L51.327,21.443 L51.327,27.974 L54.414,27.974 Z M47.673,17.81 L50.382,17.138 C50.235,15.857 49.836,13.946 49.353,12.455 L46.791,13.064 C47.211,14.555 47.61,16.529 47.673,17.81 Z M57.585,17.894 C58.047,16.676 58.614,14.828 59.139,13.064 L56.22,12.476 C56.052,13.967 55.632,15.983 55.233,17.306 L57.585,17.894 Z M42.129,27.806 C42.507,27.26 43.242,26.63 46.896,23.396 C46.539,22.808 46.056,21.611 45.804,20.792 L44.649,21.8 L44.649,14.45 L39.63,14.45 L39.63,17.369 L41.814,17.369 L41.814,23.312 C41.814,24.278 41.289,24.95 40.806,25.286 C41.268,25.853 41.919,27.092 42.129,27.806 Z M62.247,28.079 C64.158,27.26 65.691,26.21 66.888,24.782 C67.518,25.412 68.064,26 68.484,26.504 L70.458,23.921 C69.975,23.396 69.324,22.766 68.589,22.094 C69.723,19.658 70.332,16.487 70.542,12.329 L68.673,12.077 L68.148,12.14 L65.88,12.14 C66.111,10.859 66.3,9.578 66.447,8.36 L63.465,8.171 C63.36,9.431 63.192,10.796 62.982,12.14 L60.735,12.14 L60.735,14.933 L62.457,14.933 C62.1,16.613 61.701,18.209 61.302,19.469 L61.281,19.49 L61.281,19.511 L61.323,19.532 C62.31,20.498 63.528,21.59 64.704,22.703 C63.633,24.026 62.268,24.992 60.525,25.559 C61.134,26.168 61.869,27.302 62.247,28.079 Z M73.818,27.407 L73.818,25.853 L76.716,25.853 L76.716,27.071 L79.74,27.071 L79.74,10.145 L70.941,10.145 L70.941,27.407 L73.818,27.407 Z M76.716,22.976 L73.818,22.976 L73.818,13.022 L76.716,13.022 L76.716,22.976 Z M66.216,20.036 C65.628,19.532 65.04,19.028 64.473,18.545 C64.767,17.411 65.061,16.193 65.334,14.933 L67.413,14.933 C67.203,16.886 66.804,18.587 66.216,20.036 Z M95.112,28.079 C96.288,26.231 96.792,23.543 97.023,20.981 L98.262,20.981 L98.262,24.635 C98.262,24.908 98.178,24.992 97.968,24.992 L97.768248,24.991664 C97.443,24.99032 96.9054,24.9836 96.435,24.95 C96.792,25.706 97.107,27.071 97.17,27.848 C98.472,27.848 99.354,27.764 100.089,27.281 C100.782,26.798 100.95,25.958 100.95,24.698 L100.95,8.759 L94.503,8.759 L94.503,17.453 C94.503,19.196 94.461,21.233 94.104,23.102 L94.104,21.968 L91.857,21.968 L91.857,20.96 L93.936,20.96 L93.936,13.61 L91.857,13.61 L91.857,12.686 L94.041,12.686 L94.041,10.103 L91.857,10.103 L91.857,8.171 L89.106,8.171 L89.106,10.103 L86.754,10.103 L86.754,10.733 C86.061,9.935 84.864,8.927 83.94,8.213 L81.945,9.977 C82.974,10.838 84.276,12.098 84.822,12.938 L86.754,11.132 L86.754,12.686 L89.106,12.686 L89.106,13.61 L86.901,13.61 L86.901,20.96 L89.106,20.96 L89.106,21.968 L86.439,21.968 L86.439,24.635 L89.106,24.635 L89.106,27.995 L91.857,27.995 L91.857,24.635 L93.705,24.635 C93.495,25.286 93.222,25.916 92.886,26.462 C93.495,26.756 94.65,27.617 95.112,28.079 Z M98.262,13.484 L97.149,13.484 L97.149,11.468 L98.262,11.468 L98.262,13.484 Z M84.612,18.083 L86.502,15.92 C85.746,15.164 84.171,14.114 83.058,13.442 L81.273,15.395 C82.407,16.172 83.919,17.327 84.612,18.083 Z M91.437,16.34 L89.295,16.34 L89.295,15.605 L91.437,15.605 L91.437,16.34 Z M98.262,18.272 L97.149,18.272 L97.149,16.193 L98.262,16.193 L98.262,18.272 Z M91.437,18.965 L89.295,18.965 L89.295,18.209 L91.437,18.209 L91.437,18.965 Z M84.36,27.827 C85.137,25.58 85.893,23.039 86.502,20.582 L84.108,19.112 C83.373,21.8 82.407,24.635 81.672,26.42 L84.36,27.827 Z" id="path-2"></path> </defs> <g id="Symbols" stroke="none" stroke-width="1" fill="none" fill-rule="evenodd"> <g id="Icon-/-Rating-/-Mark-/-90" fill-rule="nonzero"> <path d="M115.119584,33.6846733 C116.143081,33.7742177 117.132998,34.2475733 118.089337,35.1047403 C116.998682,35.7828185 115.941606,36.0770854 114.918109,35.987541 C113.894612,35.8979967 112.904695,35.424641 111.948356,34.5674741 C113.039011,33.8893959 114.096087,33.595129 115.119584,33.6846733 Z M118.564265,27.9515654 C119.421432,28.9079039 119.894787,29.8978215 119.984332,30.9213183 C120.073876,31.944815 119.779609,33.0018909 119.101531,34.092546 C118.244364,33.1362075 117.771008,32.1462898 117.681464,31.1227931 C117.59192,30.0992963 117.886187,29.0422204 118.564265,27.9515654 Z M110.616684,29.5155543 C111.58213,29.8669479 112.415804,30.5803839 113.117705,31.6558622 C111.888713,32.0285532 110.791494,32.0392018 109.826048,31.6878082 C108.860602,31.3364145 108.026928,30.6229785 107.325027,29.5475002 C108.554019,29.1748093 109.651238,29.1641606 110.616684,29.5155543 Z M115.427828,24.8693463 C116.008269,26.0149495 116.209286,27.0936499 116.030878,28.1054477 C115.852471,29.1172454 115.29464,30.0621405 114.357384,30.9401328 C113.776943,29.7945296 113.575926,28.7158291 113.754334,27.7040314 C113.932741,26.6922336 114.490572,25.7473386 115.427828,24.8693463 Z M104,22.9249422 C105.271351,23.1065637 106.270269,23.5606175 106.996755,24.2871035 C107.723241,25.0135895 108.177295,26.0125078 108.358916,27.2838583 C107.087566,27.1022368 106.088647,26.648183 105.362161,25.921697 C104.635675,25.195211 104.181622,24.1962927 104,22.9249422 Z M113.320704,22.1094863 C113.36261,23.3930604 113.088914,24.4556484 112.499618,25.2972504 C111.910322,26.1388524 111.005425,26.7594684 109.784928,27.1590984 C109.743022,25.8755243 110.016718,24.8129363 110.606014,23.9713343 C111.19531,23.1297322 112.100207,22.5091162 113.320704,22.1094863 Z M113.506425,17.2473949 C113.21469,18.4980782 112.675302,19.4536218 111.888263,20.1140259 C111.101224,20.77443 110.066534,21.1396945 108.784192,21.2098193 C109.075928,19.9591361 109.615315,19.0035924 110.402354,18.3431883 C111.189393,17.6827842 112.224083,17.3175198 113.506425,17.2473949 Z M104.292261,15.6226891 C105.473284,16.1271717 106.320647,16.824293 106.83435,17.714053 C107.348054,18.603813 107.528097,19.6862117 107.37448,20.9612491 C106.193457,20.4567665 105.346094,19.7596452 104.83239,18.8698852 C104.318687,17.9801252 104.138644,16.8977265 104.292261,15.6226891 Z M114.491853,13.3658501 C113.789952,14.4413284 112.956278,15.1547644 111.990832,15.506158 C111.025386,15.8575517 109.928167,15.8469031 108.699176,15.4742121 C109.401077,14.3987338 110.23475,13.6852978 111.200196,13.3339041 C112.165643,12.9825105 113.262861,12.9931591 114.491853,13.3658501 Z M106.389053,8.68769616 C107.326308,9.56568848 107.884139,10.5105835 108.062547,11.5223813 C108.240954,12.534179 108.039937,13.6128795 107.459496,14.7584826 C106.52224,13.8804903 105.964409,12.9355953 105.786002,11.9237975 C105.607595,10.9119998 105.808611,9.83329934 106.389053,8.68769616 Z M117.142491,9.30793153 C116.264499,10.2451871 115.319604,10.8030185 114.307806,10.9814257 C113.296008,11.159833 112.217308,10.9588161 111.071704,10.378375 C111.949697,9.44111943 112.894592,8.88328804 113.90639,8.7048808 C114.918187,8.52647355 115.996888,8.72749047 117.142491,9.30793153 Z M109.975143,3.29381278 C110.745698,4.32121914 111.130975,5.3486255 111.130975,6.37603186 C111.130975,7.40343821 110.745698,8.43084457 109.975143,9.45825093 C109.204589,8.43084457 108.819311,7.40343821 108.819311,6.37603186 C108.819311,5.3486255 109.204589,4.32121914 109.975143,3.29381278 Z M117.895124,2.57 C117.713502,3.8413505 117.259448,4.84026876 116.532962,5.56675476 C115.806476,6.29324076 114.807558,6.74729451 113.536208,6.92891602 C113.717829,5.65756551 114.171883,4.65864726 114.898369,3.93216125 C115.624855,3.20567525 116.623773,2.7516215 117.895124,2.57 Z" id="形状结合" fill="#F86F4B" transform="translate(112.000000, 19.286605) scale(-1, 1) translate(-112.000000, -19.286605) "></path> <g id="好评如潮"> <use fill="#212832" xlink:href="#path-2"></use> <use fill="url(#linearGradient-1)" xlink:href="#path-2"></use> </g> <path d="M11.1195838,33.6846733 C12.1430806,33.7742177 13.1329982,34.2475733 14.0893367,35.1047403 C12.9986817,35.7828185 11.9416057,36.0770854 10.918109,35.987541 C9.89461222,35.8979967 8.90469459,35.424641 7.94835609,34.5674741 C9.03901113,33.8893959 10.096087,33.595129 11.1195838,33.6846733 Z M14.5642648,27.9515654 C15.4214318,28.9079039 15.8947874,29.8978215 15.9843318,30.9213183 C16.0738761,31.944815 15.7796092,33.0018909 15.101531,34.092546 C14.2443641,33.1362075 13.7710084,32.1462898 13.681464,31.1227931 C13.5919197,30.0992963 13.8861866,29.0422204 14.5642648,27.9515654 Z M6.61668388,29.5155543 C7.58213005,29.8669479 8.4158036,30.5803839 9.11770452,31.6558622 C7.88871309,32.0285532 6.7914943,32.0392018 5.82604812,31.6878082 C4.86060195,31.3364145 4.0269284,30.6229785 3.32502748,29.5475002 C4.55401891,29.1748093 5.65123771,29.1641606 6.61668388,29.5155543 Z M11.4278278,24.8693463 C12.0082688,26.0149495 12.2092857,27.0936499 12.0308785,28.1054477 C11.8524713,29.1172454 11.2946399,30.0621405 10.3573843,30.9401328 C9.77694324,29.7945296 9.57592632,28.7158291 9.75433357,27.7040314 C9.93274081,26.6922336 10.4905722,25.7473386 11.4278278,24.8693463 Z M-1.06218044e-11,22.9249422 C1.2713505,23.1065637 2.27026876,23.5606175 2.99675476,24.2871035 C3.72324076,25.0135895 4.17729451,26.0125078 4.35891602,27.2838583 C3.08756551,27.1022368 2.08864726,26.648183 1.36216125,25.921697 C0.635675252,25.195211 0.181621501,24.1962927 -1.06218044e-11,22.9249422 Z M9.32070426,22.1094863 C9.3626097,23.3930604 9.08891438,24.4556484 8.4996183,25.2972504 C7.91032222,26.1388524 7.00542539,26.7594684 5.7849278,27.1590984 C5.74302236,25.8755243 6.01671768,24.8129363 6.60601376,23.9713343 C7.19530984,23.1297322 8.10020667,22.5091162 9.32070426,22.1094863 Z M9.5064254,17.2473949 C9.21468952,18.4980782 8.67530212,19.4536218 7.88826319,20.1140259 C7.10122426,20.77443 6.0665338,21.1396945 4.78419181,21.2098193 C5.07592768,19.9591361 5.61531509,19.0035924 6.40235402,18.3431883 C7.18939295,17.6827842 8.22408341,17.3175198 9.5064254,17.2473949 Z M0.292260898,15.6226891 C1.47328408,16.1271717 2.32064726,16.824293 2.83435044,17.714053 C3.34805362,18.603813 3.5280968,19.6862117 3.37447997,20.9612491 C2.19345679,20.4567665 1.34609361,19.7596452 0.832390428,18.8698852 C0.318687249,17.9801252 0.138644073,16.8977265 0.292260898,15.6226891 Z M10.4918528,13.3658501 C9.7899519,14.4413284 8.95627835,15.1547644 7.99083218,15.506158 C7.02538601,15.8575517 5.92816721,15.8469031 4.69917578,15.4742121 C5.4010767,14.3987338 6.23475025,13.6852978 7.20019642,13.3339041 C8.1656426,12.9825105 9.2628614,12.9931591 10.4918528,13.3658501 Z M2.38905255,8.68769616 C3.3263081,9.56568848 3.8841395,10.5105835 4.06254674,11.5223813 C4.24095398,12.534179 4.03993707,13.6128795 3.459496,14.7584826 C2.52224045,13.8804903 1.96440905,12.9355953 1.78600181,11.9237975 C1.60759457,10.9119998 1.80861148,9.83329934 2.38905255,8.68769616 Z M13.142491,9.30793153 C12.2644987,10.2451871 11.3196036,10.8030185 10.3078059,10.9814257 C9.29600813,11.159833 8.21730766,10.9588161 7.07170449,10.378375 C7.9496968,9.44111943 8.89459183,8.88328804 9.90638958,8.7048808 C10.9181873,8.52647355 11.9968878,8.72749047 13.142491,9.30793153 Z M5.97514334,3.29381278 C6.74569811,4.32121914 7.13097549,5.3486255 7.13097549,6.37603186 C7.13097549,7.40343821 6.74569811,8.43084457 5.97514334,9.45825093 C5.20458857,8.43084457 4.81931119,7.40343821 4.81931119,6.37603186 C4.81931119,5.3486255 5.20458857,4.32121914 5.97514334,3.29381278 Z M13.8951236,2.57 C13.7135021,3.8413505 13.2594484,4.84026876 12.5329624,5.56675476 C11.8064764,6.29324076 10.8075581,6.74729451 9.53620761,6.92891602 C9.71782911,5.65756551 10.1718829,4.65864726 10.8983689,3.93216125 C11.6248549,3.20567525 12.6237731,2.7516215 13.8951236,2.57 Z" id="形状结合" fill="#FC2F58"></path> </g> </g> </svg>
