<?xml version="1.0" standalone="no"?><!DOCTYPE svg PUBLIC "-//W3C//DTD SVG 1.1//EN" "http://www.w3.org/Graphics/SVG/1.1/DTD/svg11.dtd"><svg t="1623898976021" class="icon" viewBox="0 0 1024 1024" version="1.1" xmlns="http://www.w3.org/2000/svg" p-id="41059" width="128" height="128" xmlns:xlink="http://www.w3.org/1999/xlink"><defs><style type="text/css"></style></defs><path d="M 865.686 938.503 H 168.717 c -12.483 0 -29.1271 -4.16101 -45.7712 -18.7245 C 104.221 907.297 95.899 884.411 95.899 865.686 v -43.6907 c 0 -10.4025 0 -18.7245 2.0805 -29.1271 c 6.24151 -33.2881 22.8857 -64.4957 47.8516 -89.4619 c 8.32204 -8.32204 18.7245 -18.7245 29.1271 -27.0466 c 43.6907 -35.3686 170.602 -104.025 185.166 -112.348 c 4.16101 -2.0805 16.6441 -10.4025 18.7245 -20.805 c 2.0805 -10.4025 -6.24151 -27.0466 -12.483 -35.3686 c -12.483 -20.805 -76.9788 -122.75 -72.8178 -205.971 C 295.628 118.784 414.214 54.288 516.161 54.288 c 137.314 6.24151 220.534 97.7839 220.534 247.581 c 4.16101 68.6569 -35.3686 158.118 -74.8983 208.05 c -6.24151 8.32204 -14.5635 22.8857 -10.4025 33.2881 c 2.0805 12.483 16.6441 20.805 16.6441 20.805 c 6.24151 4.16101 141.475 79.0593 185.166 110.267 c 35.3686 27.0466 62.4151 64.4957 74.8983 106.106 l 2.0805 8.32204 c 6.24151 20.805 8.32204 39.5297 8.32204 60.3347 v 16.6441 c 0 12.483 -4.16101 29.1271 -18.7245 45.7712 c -10.4025 16.6441 -31.2077 27.0466 -54.0932 27.0466 Z m -686.569 -83.2204 h 676.165 v -6.24151 c 0 -12.483 -2.0805 -24.9662 -6.24151 -37.4492 l -2.0805 -8.32204 c -6.24151 -24.9662 -22.8857 -47.8516 -43.6907 -62.4151 c -33.2881 -24.9662 -137.314 -83.2204 -174.763 -104.025 c -4.16101 -2.0805 -45.7712 -24.9662 -58.2542 -72.8178 c -6.24151 -22.8857 -6.24151 -60.3347 24.9662 -104.025 c 31.2077 -39.5297 60.3347 -110.267 58.2542 -156.038 v -2.0805 c 0 -131.072 -74.8983 -162.281 -139.394 -164.359 c -31.2077 0 -135.233 12.483 -135.233 164.359 v 2.0805 c -2.0805 41.6101 29.1271 110.267 58.2542 156.038 c 31.2077 43.6907 31.2077 79.0593 24.9662 104.025 c -12.483 49.9322 -58.2542 72.8178 -62.4151 74.8983 c -35.3686 18.7245 -139.394 74.8983 -170.602 101.945 c -8.32204 6.24151 -16.6441 14.5635 -22.8857 20.805 c -14.5635 14.5635 -22.8857 31.2077 -27.0466 49.9322 v 43.6907 Z" p-id="41060" fill="#989FA9"></path></svg>