<?xml version="1.0" encoding="UTF-8"?> <svg width="84px" height="36px" viewBox="0 0 84 36" version="1.1" xmlns="http://www.w3.org/2000/svg" xmlns:xlink="http://www.w3.org/1999/xlink"> <title>rating_mark_85</title> <defs> <linearGradient x1="-1.11022302e-14%" y1="50%" x2="100%" y2="50%" id="linearGradient-1"> <stop stop-color="#0087FC" offset="0%"></stop> <stop stop-color="#00A3F5" offset="100%"></stop> </linearGradient> <path d="M2.73,27.932 C3.423,26.063 3.759,23.543 3.906,21.107 L5.145,21.107 L5.145,24.677 C5.145,24.908 5.082,24.992 4.872,24.992 L4.55933333,24.9912222 C4.29333333,24.9896667 3.934,24.985 3.612,24.971 C3.948,25.706 4.263,27.008 4.305,27.764 C5.502,27.764 6.321,27.68 6.993,27.197 C7.665,26.735 7.812,25.937 7.812,24.74 L7.812,15.017 C8.211,15.836 8.694,17.012 8.862,17.579 C9.366,17.222 9.87,16.823 10.374,16.403 L10.374,17.474 L18.039,17.474 L18.039,16.298 C18.438,16.655 18.837,16.991 19.236,17.306 C19.488,16.466 20.076,15.038 20.58,14.282 C18.858,13.232 16.905,11.342 15.603,9.746 C15.75,9.452 15.897,9.137 16.044,8.843 L13.314,7.898 C12.117,10.46 10.038,12.791 7.812,14.282 L7.812,8.759 L1.491,8.759 L1.491,16.445 C1.491,19.511 1.428,23.774 0.399,26.651 C1.05,26.882 2.226,27.512 2.73,27.932 Z M5.145,13.484 L4.053,13.484 L4.053,11.51 L5.145,11.51 L5.145,13.484 Z M16.464,14.765 L12.033,14.765 C12.789,13.946 13.503,13.064 14.154,12.14 C14.847,13.001 15.645,13.904 16.464,14.765 Z M5.145,18.293 L4.032,18.293 C4.053,17.642 4.053,17.012 4.053,16.445 L4.053,16.235 L5.145,16.235 L5.145,18.293 Z M17.682,28.058 L20.307,26.882 C19.824,25.412 18.606,23.186 17.556,21.527 L15.141,22.535 C15.435,23.039 15.75,23.585 16.023,24.152 L12.852,24.425 C13.44,23.396 14.091,22.241 14.637,21.296 L19.698,21.296 L19.698,18.503 L8.715,18.503 L8.715,21.296 L11.424,21.296 C10.836,22.367 9.975,23.837 9.639,24.215 C9.24,24.656 8.631,24.824 8.148,24.929 C8.4,25.559 8.841,26.987 8.988,27.701 C9.744,27.365 10.815,27.218 17.157,26.546 C17.367,27.113 17.556,27.617 17.682,28.058 Z M23.1,27.953 C27.363,27.386 30.051,26.021 31.626,23.291 C33.39,25.664 35.889,27.134 39.627,27.848 C40.026,27.029 40.824,25.769 41.475,25.139 C37.065,24.572 34.272,22.955 32.802,20.267 C32.991,19.532 33.138,18.755 33.243,17.894 L31.332,17.663 C35.007,16.13 38.031,13.904 39.837,10.67 L37.716,9.389 L37.212,9.536 L32.193,9.536 C32.508,9.221 32.802,8.906 33.075,8.591 L30.03,7.898 C28.497,9.725 25.725,11.489 21.651,12.665 C22.218,13.148 23.016,14.198 23.331,14.87 C25.683,14.03 27.657,13.043 29.316,11.909 L35.133,11.909 C34.524,12.518 33.81,13.064 33.012,13.568 C32.004,13.001 30.87,12.455 29.925,12.077 L27.846,13.379 C28.728,13.778 29.736,14.303 30.618,14.828 C30.24,14.996 29.841,15.143 29.442,15.29 C28.602,14.765 27.678,14.24 26.901,13.841 L24.717,15.038 C25.326,15.374 25.977,15.773 26.607,16.172 C25.074,16.571 23.457,16.865 21.798,17.075 C22.323,17.768 22.932,19.049 23.184,19.889 C23.856,19.784 24.528,19.658 25.2,19.511 C24.612,20.393 23.835,21.212 22.995,21.779 L25.221,23.564 C26.46,22.577 27.384,21.128 28.077,19.784 L26.733,19.154 C27.93,18.86 29.064,18.524 30.177,18.125 C29.505,22.85 26.985,24.782 21.588,25.223 C22.092,25.811 22.827,27.176 23.1,27.953 Z M36.666,22.934 C37.506,22.031 38.577,20.645 39.543,19.259 L36.624,18.209 C36.078,19.406 35.112,20.96 34.293,21.968 L36.666,22.934 Z M44.982,27.974 C48.993,25.496 51.198,22.031 52.395,18.587 C53.676,22.01 56.028,25.706 60.438,27.827 C60.879,26.966 61.74,25.916 62.685,25.181 C55.419,21.947 54.096,14.534 53.781,11.552 C53.886,10.208 53.928,9.011 53.949,8.045 L50.421,8.045 C50.316,11.825 50.862,20.792 42.42,25.475 C43.449,26.168 44.436,27.155 44.982,27.974 Z M68.166,27.638 L68.166,25.979 L78.687,25.979 L78.687,27.638 L82.047,27.638 L82.047,10.019 L64.974,10.019 L64.974,27.638 L68.166,27.638 Z M78.687,22.829 L68.166,22.829 L68.166,13.127 L78.687,13.127 L78.687,22.829 Z" id="path-2"></path> </defs> <g id="Symbols" stroke="none" stroke-width="1" fill="none" fill-rule="evenodd"> <g id="Icon-/-Rating-/-Mark-/-85" fill-rule="nonzero"> <g id="脍炙人口"> <use fill="#212832" xlink:href="#path-2"></use> <use fill="url(#linearGradient-1)" xlink:href="#path-2"></use> </g> </g> </g> </svg>
