<?xml version="1.0" encoding="UTF-8"?> <svg width="84px" height="36px" viewBox="0 0 84 36" version="1.1" xmlns="http://www.w3.org/2000/svg" xmlns:xlink="http://www.w3.org/1999/xlink"> <defs> <linearGradient x1="-1.11022302e-14%" y1="50%" x2="100%" y2="50%" id="linearGradient-1"> <stop stop-color="#0087FC" offset="0%"></stop> <stop stop-color="#00A3F5" offset="100%"></stop> </linearGradient> <path d="M5.46,27.974 L5.46,13.526 C6.069,12.329 6.636,11.09 7.098,9.893 L7.098,12.413 L11.697,12.413 C11.655,12.812 11.592,13.211 11.508,13.568 L7.875,13.568 L7.875,25.181 L6.153,25.181 L6.153,27.722 L20.433,27.722 L20.433,25.181 L18.984,25.181 L18.984,13.568 L14.28,13.568 C14.385,13.211 14.469,12.812 14.553,12.413 L20.055,12.413 L20.055,9.83 L15.078,9.83 C15.183,9.284 15.267,8.717 15.351,8.171 L12.138,8.108 C12.117,8.633 12.075,9.221 12.012,9.83 L7.119,9.83 C7.224,9.557 7.329,9.305 7.413,9.032 L4.641,8.129 C3.675,11.027 2.016,13.904 0.294,15.752 C0.777,16.508 1.575,18.209 1.827,18.965 C2.1,18.671 2.373,18.335 2.646,17.978 L2.646,27.974 L5.46,27.974 Z M16.191,16.55 L10.542,16.55 L10.542,15.752 L16.191,15.752 L16.191,16.55 Z M16.191,19.427 L10.542,19.427 L10.542,18.608 L16.191,18.608 L16.191,19.427 Z M16.191,22.262 L10.542,22.262 L10.542,21.422 L16.191,21.422 L16.191,22.262 Z M16.191,25.181 L10.542,25.181 L10.542,24.299 L16.191,24.299 L16.191,25.181 Z M22.785,14.681 C24.822,13.379 27.048,11.258 28.539,9.242 L25.641,8.066 C24.759,9.41 22.911,11.111 21.294,12.077 C21.756,12.728 22.47,13.988 22.785,14.681 Z M40.131,16.151 L40.131,8.633 L29.442,8.633 L29.442,16.151 L40.131,16.151 Z M37.044,11.405 L32.382,11.405 L32.382,10.733 L37.044,10.733 L37.044,11.405 Z M27.069,27.995 L27.069,16.487 C27.783,15.605 28.413,14.681 28.959,13.799 L26.292,12.665 C25.053,14.639 22.974,16.655 21.147,17.915 C21.588,18.671 22.323,20.414 22.533,21.107 C23.058,20.708 23.583,20.246 24.108,19.742 L24.108,27.995 L27.069,27.995 Z M37.044,14.051 L32.382,14.051 L32.382,13.358 L37.044,13.358 L37.044,14.051 Z M37.233,27.533 C38.136,27.113 38.367,26.399 38.367,25.076 L38.367,22.661 L41.097,22.661 L41.097,20.099 L38.367,20.099 L38.367,19.259 L40.635,19.259 L40.635,16.781 L28.518,16.781 L28.518,19.259 L35.28,19.259 L35.28,20.099 L27.951,20.099 L27.951,22.661 L30.639,22.661 L29.106,23.69 C29.946,24.551 30.996,25.769 31.437,26.546 L33.054,25.412 C33.411,26.147 33.789,27.197 33.915,27.974 C35.28,27.974 36.351,27.953 37.233,27.533 Z M34.902,25.307 L34.6047971,25.306574 C34.2565537,25.305438 33.7164545,25.3012727 33.243,25.286 L33.705,24.95 C33.264,24.299 32.403,23.396 31.647,22.661 L35.28,22.661 L35.28,24.992 C35.28,25.223 35.196,25.286 34.902,25.307 Z M62.307,19.49 L62.307,16.151 L42.735,16.151 L42.735,19.49 L62.307,19.49 Z M71.358,28.163 C74.907,26.777 76.734,24.719 77.658,22.661 L78.855,22.661 L77.175,24.278 C78.813,25.349 80.85,26.966 81.774,28.058 L83.685,26.147 C82.698,25.076 80.661,23.627 79.086,22.661 L83.013,22.661 L83.013,20.057 L78.393,20.057 C78.498,19.364 78.54,18.692 78.54,18.083 L78.54,15.941 L75.621,15.941 L75.621,16.991 C74.886,16.487 73.857,15.92 73.017,15.542 L80.073,15.542 C79.905,16.319 79.737,17.054 79.569,17.6 L81.921,18.083 C82.362,16.865 82.866,14.996 83.223,13.295 L81.291,12.917 L80.85,13.001 L78.12,13.001 L78.12,12.014 L82.11,12.014 L82.11,9.515 L78.12,9.515 L78.12,8.045 L75.138,8.045 L75.138,9.515 L71.127,9.515 L71.127,12.014 L75.138,12.014 L75.138,13.001 L70.434,13.001 L70.434,15.542 L72.954,15.542 L71.799,16.928 C72.849,17.474 74.235,18.314 74.886,18.923 L75.621,17.999 C75.621,18.608 75.579,19.322 75.411,20.057 L74.151,20.057 L74.739,19.364 C74.025,18.713 72.597,17.81 71.505,17.264 L70.203,18.692 C70.854,19.07 71.631,19.574 72.282,20.057 L69.993,20.057 L69.993,22.241 C69.825,21.863 69.678,21.464 69.573,21.128 L68.607,21.968 L68.607,14.408 L63.567,14.408 L63.567,17.327 L65.814,17.327 L65.814,23.585 C65.814,24.761 65.289,25.58 64.806,26 C65.247,26.42 66.003,27.428 66.255,28.016 C66.585225,27.51095 67.20294,26.8801231 69.9862633,24.3783652 L70.4568923,23.9559995 C70.5385931,23.88278 70.62195,23.808125 70.707,23.732 C70.539,23.459 70.35,23.081 70.161,22.661 L74.193,22.661 C73.29,23.858 71.841,24.971 69.531,25.811 C70.14,26.357 71.022,27.47 71.358,28.163 Z M67.893,13.463 L69.951,11.258 C69.153,10.355 67.473,9.053 66.297,8.171 L64.365,10.145 C65.562,11.132 67.179,12.539 67.893,13.463 Z" id="path-2"></path> </defs> <g id="Symbols" stroke="none" stroke-width="1" fill="none" fill-rule="evenodd"> <g id="Icon-/-Rating-/-Mark-/-80" fill-rule="nonzero"> <g id="值得一读"> <use fill="#212832" xlink:href="#path-2"></use> <use fill="url(#linearGradient-1)" xlink:href="#path-2"></use> </g> </g> </g> </svg>
