<?xml version="1.0" standalone="no"?><!DOCTYPE svg PUBLIC "-//W3C//DTD SVG 1.1//EN" "http://www.w3.org/Graphics/SVG/1.1/DTD/svg11.dtd"><svg t="1656650660870" class="icon" viewBox="0 0 1025 1024" version="1.1" xmlns="http://www.w3.org/2000/svg" p-id="4034" xmlns:xlink="http://www.w3.org/1999/xlink" width="32.03125" height="32" fill="currentColor"><defs><style type="text/css"></style></defs><path d="M934.176 168.48c-116.128-115.072-301.824-117.472-422.112-9.216-120.32-108.256-305.952-105.856-422.144 9.216-119.712 118.528-119.712 310.688 0 429.28 34.208 33.888 353.696 350.112 353.696 350.112 37.856 37.504 99.072 37.504 136.896 0 0 0 349.824-346.304 353.696-350.112 119.744-118.592 119.744-310.752-0.032-429.28zM888.576 552.576l-353.696 350.112c-12.576 12.512-33.088 12.512-45.6 0l-353.696-350.112c-94.4-93.44-94.4-245.472 0-338.912 91.008-90.08 237.312-93.248 333.088-7.104l43.392 39.04 43.36-39.04c95.808-86.144 242.112-83.008 333.12 7.104 94.4 93.408 94.4 245.44 0.032 338.912zM296.096 240.032c8.864 0 16 7.168 16 16s-7.168 16-16 16l-0.032 0c-57.408 0-103.968 46.56-103.968 103.968l0 0.032c0 8.832-7.168 16-16 16s-16-7.168-16-16l0 0c0-75.072 60.832-135.904 135.872-135.968 0.064 0 0.064-0.032 0.128-0.032z" p-id="4035"></path></svg>